#!OML:ASF X:\für Bonn\!DataBase\2005_08_11_Bastian_Final\c3d\Bastian.ASF
:FULLY-SPECIFIED
:DEGREES
63
root -2.283 16.6708 6.08865 138.011 -24.7816 -167.41
lowerback 49.4946 -8.24872 1.17892
upperback 13.2992 -16.3425 3.45194
thorax -4.11525 -11.0592 9.59263
lowerneck -10.3818 -6.28019 -6.60345
upperneck -6.1415 -6.89506 11.9221
head 0.552085 -2.92834 4.39948
rclavicle -5.19822e-014 4.94974e-014
rhumerus -38.3437 43.1095 -96.1526
rradius 43.6757
rwrist -32.4865
rhand -34.3355 4.5693
rfingers 7.12502
rthumb -7.50344 -25.2776
lclavicle -5.19822e-014 4.94974e-014
lhumerus 51.9225 -23.7257 79.3933
lradius 106.974
lwrist -20.6971
lhand -59.2088 -13.1597
lfingers 7.12502
lthumb -31.3983 14.1651
rfemur -97.2995 -4.63188 36.1125
rtibia 134.651
rfoot 0.95873 -9.37285
rtoes -3.61164
lfemur 23.878 -6.48205 -14.6404
ltibia 35.8881
lfoot -13.7084 -10.0268
ltoes 2.61296
64
root -2.29003 16.6679 6.09951 137.797 -24.8823 -167.406
lowerback 49.8247 -8.23626 1.07551
upperback 13.3327 -16.4528 3.49558
thorax -4.07793 -11.1596 9.7414
lowerneck -10.4821 -6.23788 -6.38717
upperneck -6.19811 -6.84069 11.8515
head 0.535166 -2.89943 4.34472
rclavicle -3.23025e-015 5.52621e-014
rhumerus -37.8882 43.2016 -95.849
rradius 43.8491
rwrist -32.4046
rhand -34.2713 4.64905
rfingers 7.12502
rthumb -7.44146 -25.2001
lclavicle -3.23025e-015 5.52621e-014
lhumerus 51.8439 -23.6034 79.4694
lradius 107.325
lwrist -20.7057
lhand -59.1535 -13.2679
lfingers 7.12502
lthumb -31.3456 14.0671
rfemur -97.7204 -4.53474 36.4001
rtibia 134.538
rfoot 1.37187 -9.63663
rtoes -2.93027
lfemur 24.0283 -6.38683 -14.6285
ltibia 35.9057
lfoot -13.6233 -10.2297
ltoes 3.01625
65
root -2.29746 16.6613 6.10919 137.587 -24.9689 -167.369
lowerback 50.1184 -8.23277 1.01047
upperback 13.3783 -16.5574 3.53632
thorax -4.02765 -11.2567 9.86275
lowerneck -10.5856 -6.18648 -6.14177
upperneck -6.26649 -6.77367 11.7955
head 0.514016 -2.86371 4.2905
rclavicle -1.68967e-014 -1.59028e-014
rhumerus -37.4163 43.2861 -95.5634
rradius 43.9885
rwrist -32.2492
rhand -34.2203 4.73148
rfingers 7.12502
rthumb -7.39221 -25.1194
lclavicle -1.68967e-014 -1.59028e-014
lhumerus 51.7563 -23.453 79.4933
lradius 107.718
lwrist -20.7489
lhand -59.0524 -13.3819
lfingers 7.12502
lthumb -31.2493 13.9718
rfemur -98.0762 -4.43128 36.7151
rtibia 134.43
rfoot 1.73109 -9.91387
rtoes -2.15923
lfemur 24.1639 -6.32845 -14.6002
ltibia 35.942
lfoot -13.5664 -10.4053
ltoes 3.36963
66
root -2.30466 16.6523 6.11841 137.393 -25.0638 -167.371
lowerback 50.4011 -8.20506 0.928568
upperback 13.4254 -16.637 3.56938
thorax -3.97676 -11.3398 9.97301
lowerneck -10.7253 -6.15817 -5.86479
upperneck -6.29849 -6.74477 11.7121
head 0.510136 -2.84657 4.21944
rclavicle 3.53837e-014 -7.21588e-014
rhumerus -36.952 43.2895 -95.2682
rradius 44.1347
rwrist -32.0762
rhand -34.1505 4.85937
rfingers 7.12502
rthumb -7.32484 -24.9938
lclavicle 3.53837e-014 -7.21588e-014
lhumerus 51.6441 -23.355 79.5263
lradius 108.102
lwrist -20.8862
lhand -59.019 -13.4712
lfingers 7.12502
lthumb -31.2175 13.8886
rfemur -98.3341 -4.34594 36.9761
rtibia 134.316
rfoot 2.02733 -10.1511
rtoes -1.80369
lfemur 24.2716 -6.21987 -14.578
ltibia 36.0263
lfoot -13.512 -10.638
ltoes 3.89385
67
root -2.31247 16.6417 6.12825 137.169 -25.1284 -167.334
lowerback 50.7249 -8.18968 0.888697
upperback 13.4611 -16.716 3.61627
thorax -3.94399 -11.4242 10.085
lowerneck -10.802 -6.1195 -5.69441
upperneck -6.35409 -6.71228 11.3854
head 0.510393 -2.82969 4.5208
rclavicle -3.66758e-014 4.13472e-014
rhumerus -36.5097 43.3046 -94.966
rradius 44.3278
rwrist -31.8801
rhand -34.0401 4.96359
rfingers 7.12502
rthumb -7.21824 -24.8933
lclavicle -3.66758e-014 4.13472e-014
lhumerus 51.505 -23.2184 79.5179
lradius 108.505
lwrist -21.067
lhand -59.0156 -13.4659
lfingers 7.12502
lthumb -31.2142 13.8945
rfemur -98.4993 -4.27831 37.2725
rtibia 134.207
rfoot 2.25541 -10.3167
rtoes -1.89944
lfemur 24.3708 -6.13213 -14.5163
ltibia 36.162
lfoot -13.4964 -10.879
ltoes 4.44091
68
root -2.31968 16.6296 6.13727 137.001 -25.1915 -167.309
lowerback 50.9733 -8.16038 0.837604
upperback 13.5097 -16.7785 3.66424
thorax -3.88763 -11.4993 10.1876
lowerneck -10.9662 -6.09392 -5.44206
upperneck -6.39752 -6.68042 11.3329
head 0.508334 -2.80869 4.45083
rclavicle 6.94752e-014 -1.09133e-013
rhumerus -36.0505 43.2706 -94.6515
rradius 44.4721
rwrist -31.61
rhand -33.8751 5.18037
rfingers 7.12502
rthumb -7.05899 -24.6819
lclavicle 6.94752e-014 -1.09133e-013
lhumerus 51.3897 -23.1043 79.4723
lradius 108.904
lwrist -21.252
lhand -59.0261 -13.4791
lfingers 7.12502
lthumb -31.2242 13.8794
rfemur -98.6493 -4.20725 37.5326
rtibia 134.094
rfoot 2.40306 -10.4463
rtoes -2.03131
lfemur 24.3901 -6.00331 -14.4365
ltibia 36.3455
lfoot -13.495 -11.1264
ltoes 4.80689
69
root -2.32627 16.6159 6.14731 136.822 -25.2728 -167.304
lowerback 51.2635 -8.13086 0.795716
upperback 13.5413 -16.8294 3.69677
thorax -3.86152 -11.5626 10.2733
lowerneck -11.1323 -6.07657 -5.17051
upperneck -6.42638 -6.66406 11.2805
head 0.512003 -2.79566 4.37626
rclavicle -2.38542e-015 -8.01102e-014
rhumerus -35.6543 43.1626 -94.3729
rradius 44.6731
rwrist -31.2651
rhand -33.7115 5.34451
rfingers 7.12502
rthumb -6.90107 -24.523
lclavicle -2.38542e-015 -8.01102e-014
lhumerus 51.2644 -23.0184 79.43
lradius 109.294
lwrist -21.4806
lhand -59.0017 -13.487
lfingers 7.12502
lthumb -31.201 13.876
rfemur -98.7415 -4.16846 37.7372
rtibia 133.983
rfoot 2.48768 -10.5409
rtoes -2.12176
lfemur 24.4165 -5.88817 -14.3927
ltibia 36.5586
lfoot -13.5095 -11.3557
ltoes 5.26862
70
root -2.33321 16.602 6.15622 136.671 -25.3339 -167.282
lowerback 51.4491 -8.10451 0.808947
upperback 13.612 -16.861 3.72239
thorax -3.79118 -11.6173 10.3049
lowerneck -11.3337 -6.08473 -4.92557
upperneck -6.45198 -6.67691 11.2593
head 0.528048 -2.79408 4.31593
rclavicle -1.13904e-013 3.51849e-014
rhumerus -35.2341 42.9966 -94.068
rradius 44.8518
rwrist -30.836
rhand -33.503 5.58098
rfingers 7.12502
rthumb -6.69976 -24.293
lclavicle -1.13904e-013 3.51849e-014
lhumerus 51.2015 -23.0066 79.3473
lradius 109.679
lwrist -21.6773
lhand -58.9659 -13.4763
lfingers 7.12502
lthumb -31.1669 13.8932
rfemur -98.845 -4.1204 37.9538
rtibia 133.87
rfoot 2.50354 -10.6737
rtoes -2.29105
lfemur 24.3988 -5.79922 -14.3489
ltibia 36.8
lfoot -13.5605 -11.5647
ltoes 5.5766
71
root -2.33922 16.5874 6.16539 136.507 -25.4023 -167.275
lowerback 51.6698 -8.07848 0.828901
upperback 13.6637 -16.8815 3.73599
thorax -3.75165 -11.6603 10.3243
lowerneck -11.4805 -6.1044 -4.71743
upperneck -6.49913 -6.70188 11.2761
head 0.531849 -2.79952 4.2773
rclavicle 3.79679e-014 -6.57977e-014
rhumerus -34.8677 42.7605 -93.8119
rradius 45.0279
rwrist -30.3512
rhand -33.343 5.82733
rfingers 7.12502
rthumb -6.54533 -24.0515
lclavicle 3.79679e-014 -6.57977e-014
lhumerus 51.0826 -23.0372 79.2893
lradius 110.093
lwrist -21.899
lhand -58.9263 -13.4658
lfingers 7.12502
lthumb -31.1291 13.911
rfemur -98.9067 -4.09235 38.1312
rtibia 133.764
rfoot 2.48705 -10.7754
rtoes -2.52715
lfemur 24.3961 -5.70501 -14.3135
ltibia 37.0573
lfoot -13.6054 -11.7785
ltoes 5.95627
72
root -2.34521 16.5725 6.17406 136.336 -25.4493 -167.243
lowerback 51.8593 -8.04662 0.878864
upperback 13.7274 -16.8861 3.77691
thorax -3.69318 -11.7011 10.3484
lowerneck -11.651 -6.14241 -4.57898
upperneck -6.55428 -6.74227 11.3031
head 0.5419 -2.81015 4.25465
rclavicle 2.98177e-015 1.64991e-014
rhumerus -34.5054 42.5199 -93.4991
rradius 45.2318
rwrist -29.8253
rhand -33.154 6.1224
rfingers 7.12502
rthumb -6.36288 -23.762
lclavicle 2.98177e-015 1.64991e-014
lhumerus 51.0281 -23.0927 79.2437
lradius 110.471
lwrist -22.1279
lhand -58.8943 -13.5007
lfingers 7.12502
lthumb -31.0986 13.8819
rfemur -98.954 -4.07784 38.3351
rtibia 133.66
rfoot 2.48311 -10.8926
rtoes -2.61889
lfemur 24.379 -5.62458 -14.2498
ltibia 37.3327
lfoot -13.6729 -11.9838
ltoes 6.30037
73
root -2.35095 16.5565 6.18226 136.204 -25.5111 -167.247
lowerback 52.0055 -8.01208 0.930978
upperback 13.8035 -16.8794 3.78508
thorax -3.62723 -11.7296 10.3279
lowerneck -11.8134 -6.18789 -4.43745
upperneck -6.61048 -6.79164 11.369
head 0.552608 -2.82426 4.24503
rclavicle 6.64935e-014 -8.68689e-014
rhumerus -34.1533 42.184 -93.2117
rradius 45.4433
rwrist -29.2586
rhand -32.9725 6.41569
rfingers 7.12502
rthumb -6.18765 -23.4739
lclavicle 6.64935e-014 -8.68689e-014
lhumerus 51.0574 -23.196 79.1766
lradius 110.761
lwrist -22.3704
lhand -58.862 -13.5377
lfingers 7.12502
lthumb -31.0678 13.8508
rfemur -99.0005 -4.05281 38.5026
rtibia 133.565
rfoot 2.50619 -11.0343
rtoes -2.57739
lfemur 24.3295 -5.54094 -14.2396
ltibia 37.6278
lfoot -13.7471 -12.1554
ltoes 6.60859
74
root -2.35718 16.5387 6.18917 136.071 -25.5604 -167.239
lowerback 52.1417 -7.97452 0.986448
upperback 13.8675 -16.8616 3.81225
thorax -3.57049 -11.7518 10.3234
lowerneck -11.918 -6.24871 -4.35768
upperneck -6.68476 -6.85853 11.4258
head 0.551028 -2.84972 4.24441
rclavicle 3.49861e-014 -1.78906e-014
rhumerus -33.8679 41.8379 -92.9253
rradius 45.6813
rwrist -28.6391
rhand -32.8035 6.6911
rfingers 7.12502
rthumb -6.02448 -23.2032
lclavicle 3.49861e-014 -1.78906e-014
lhumerus 51.0757 -23.3123 79.1362
lradius 111.055
lwrist -22.5677
lhand -58.7975 -13.7754
lfingers 7.12502
lthumb -31.0063 13.6249
rfemur -99.0277 -4.03498 38.6856
rtibia 133.475
rfoot 2.53762 -11.2211
rtoes -2.36758
lfemur 24.2785 -5.46282 -14.2132
ltibia 37.9438
lfoot -13.855 -12.3315
ltoes 6.86628
